<svg width="36" height="73" viewBox="0 0 36 73" fill="none" xmlns="http://www.w3.org/2000/svg">
<path d="M14.1938 10.9019C9.72442 15.4085 5.25511 19.9151 0.785706 24.4217C0.523806 24.2959 0.2619 24.1701 0 24.0444C0.5115 22.7162 0.714405 21.125 1.58521 20.1029C6.8944 13.8713 12.3007 7.71953 17.7943 1.64953C19.8476 -0.619172 21.4525 -0.57347 22.7372 1.94683C25.5014 7.36993 27.9824 12.9418 30.4175 18.5233C30.7662 19.3226 30.5797 20.9961 30.0082 21.4282C28.6455 22.4585 27.6345 21.2237 26.9809 20.0931C25.7782 18.0125 24.7081 15.8553 23.5729 13.7353C22.8421 12.3705 22.094 11.0149 20.4395 9.76443C19.9267 12.5475 19.11 15.3136 18.9521 18.1167C18.1077 33.1064 20.7429 47.5325 26.5756 61.3464C28.3894 65.6421 30.9465 69.5036 35.1915 72.3834C32.2441 73.7152 30.0612 72.7063 28.5736 70.8068C26.3186 67.9275 24.0388 64.9245 22.5339 61.6254C15.9389 47.1686 13.5745 31.9133 14.7157 16.0926C14.8296 14.5129 14.9938 12.9367 15.1346 11.3589C14.821 11.2065 14.5074 11.0542 14.1938 10.9019Z" fill="black"/>
</svg>
